<?xml version="1.0" encoding="utf-8"?><svg xmlns="http://www.w3.org/2000/svg" xmlns:xlink="http://www.w3.org/1999/xlink"><symbol viewBox="0 0 22 31" id="anchor" xmlns="http://www.w3.org/2000/svg"><path d="M21.926 17.97a.64.64 0 01-.567.349h-1.35c-.502 3.494-3.455 7.059-6.78 8.237l.25.312c.177.22.192.535.037.774l-1.98 3.063a.638.638 0 01-.536.294.639.639 0 01-.536-.294l-1.98-3.063a.665.665 0 01.037-.774l.249-.312c-3.325-1.178-6.277-4.743-6.78-8.238H.64a.64.64 0 01-.566-.348.667.667 0 01.036-.674l2.509-3.774a.638.638 0 011.061 0l2.51 3.774c.133.2.146.46.035.674a.64.64 0 01-.566.348H4.42c.534 2.248 2.749 4.048 5.084 4.613V8.466H7.509c-.55 0-.997-.456-.997-1.018s.446-1.018.997-1.018h1.027A3.728 3.728 0 017.36 3.713C7.36 1.665 8.993-.002 11-.002c2.006 0 3.64 1.667 3.64 3.715a3.73 3.73 0 01-1.177 2.717h1.028c.55 0 .997.456.997 1.018s-.446 1.018-.997 1.018h-1.995v14.465c2.335-.565 4.549-2.366 5.083-4.613H16.34a.64.64 0 01-.567-.348.667.667 0 01.036-.674l2.51-3.774a.637.637 0 011.06 0l2.51 3.774c.133.2.147.46.036.674zM9.355 3.713c0 .926.738 1.678 1.645 1.678s1.645-.752 1.645-1.678c0-.926-.738-1.679-1.645-1.679s-1.645.753-1.645 1.679z"/></symbol><symbol viewBox="0 0 12 20" id="fa-angle-left" xmlns="http://www.w3.org/2000/svg"><path d="M.168 18.26c0 .18.08.34.201.461l1.002 1.002c.12.12.3.2.461.2.16 0 .34-.08.461-.2l9.34-9.341c.121-.12.201-.3.201-.462a.69.69 0 00-.2-.46L2.294.12a.686.686 0 00-.462-.201c-.16 0-.34.08-.46.201L.368 1.122c-.12.12-.2.3-.2.461 0 .16.08.341.2.461L8.246 9.92.37 17.798a.693.693 0 00-.2.461z"/></symbol></svg>